<svg xmlns="http://www.w3.org/2000/svg" xmlns:xlink="http://www.w3.org/1999/xlink" width="500" zoomAndPan="magnify" viewBox="0 0 375 374.999991" height="500" preserveAspectRatio="xMidYMid meet" version="1.0"><defs><g/><clipPath id="3f595f65e7"><path d="M 94 112.546875 L 271 112.546875 L 271 287.296875 L 94 287.296875 Z M 94 112.546875 " clip-rule="nonzero"/></clipPath></defs><g clip-path="url(#3f595f65e7)"><path fill="#33c6b7" d="M 166.589844 112.613281 C 145.171875 113.507812 128.132812 130.542969 127.238281 151.980469 C 127.199219 152.957031 127.203125 154.542969 127.203125 155.523438 L 127.203125 196.632812 C 127.203125 197.179688 127.339844 197.691406 127.613281 198.164062 C 127.886719 198.640625 128.261719 199.015625 128.734375 199.289062 L 150.292969 211.746094 C 150.632812 211.941406 150.976562 211.941406 151.316406 211.746094 C 151.65625 211.546875 151.828125 211.253906 151.824219 210.859375 L 151.824219 150.617188 C 151.824219 150.066406 151.960938 149.554688 152.234375 149.078125 C 152.507812 148.605469 152.878906 148.226562 153.351562 147.949219 L 193.824219 124.15625 C 194.667969 123.664062 194.757812 122.734375 194.003906 122.113281 C 187.394531 116.683594 179.273438 113.035156 170.128906 112.617188 C 169.152344 112.574219 167.566406 112.574219 166.589844 112.613281 Z M 214.460938 123.460938 C 213.652344 123.480469 212.84375 123.519531 212.03125 123.582031 C 211.058594 123.664062 209.484375 123.859375 208.523438 124.023438 C 204.359375 124.730469 200.234375 126.09375 196.296875 128.152344 C 195.429688 128.605469 194.0625 129.402344 193.214844 129.890625 L 157.65625 150.445312 C 157.179688 150.71875 156.808594 151.09375 156.535156 151.570312 C 156.261719 152.042969 156.125 152.554688 156.125 153.101562 L 156.125 178.019531 C 156.125 178.109375 156.136719 178.195312 156.15625 178.28125 C 156.179688 178.371094 156.214844 178.453125 156.261719 178.53125 C 156.304688 178.609375 156.359375 178.679688 156.421875 178.742188 C 156.484375 178.804688 156.554688 178.859375 156.632812 178.902344 C 156.710938 178.949219 156.792969 178.984375 156.878906 179.007812 C 156.96875 179.03125 157.054688 179.042969 157.144531 179.042969 C 157.234375 179.042969 157.324219 179.03125 157.410156 179.007812 C 157.496094 178.984375 157.578125 178.949219 157.65625 178.90625 L 176.5625 167.992188 C 177.585938 167.402344 178.605469 166.808594 179.625 166.21875 L 184.855469 163.1875 C 185.875 162.597656 186.898438 162.007812 187.917969 161.414062 L 209.765625 148.773438 C 209.894531 148.46875 210.101562 148.238281 210.390625 148.074219 C 210.679688 147.914062 210.988281 147.855469 211.3125 147.90625 L 212.035156 148.308594 L 253.667969 171.960938 C 254.519531 172.445312 255.371094 172.058594 255.527344 171.09375 C 256.917969 162.648438 256.003906 153.78125 251.792969 145.644531 C 251.34375 144.777344 250.550781 143.402344 250.027344 142.578125 C 242.734375 131.066406 230.6875 124.355469 218 123.539062 C 217.023438 123.476562 216.230469 123.460938 216.230469 123.460938 Z M 120.851562 150.953125 C 112.859375 153.96875 105.660156 159.1875 100.726562 166.902344 C 100.199219 167.726562 99.410156 169.101562 98.957031 169.96875 C 89.019531 188.984375 95.234375 212.28125 113.335938 223.773438 C 114.160156 224.300781 115.535156 225.089844 116.378906 225.578125 L 151.921875 246.132812 C 152.359375 246.566406 152.875 246.863281 153.472656 247.019531 L 172.871094 235.792969 C 173.890625 235.203125 174.914062 234.609375 175.933594 234.019531 L 176.5625 233.65625 C 176.902344 233.460938 177.074219 233.167969 177.074219 232.773438 C 177.074219 232.378906 176.902344 232.085938 176.5625 231.886719 L 157.65625 220.972656 C 156.632812 220.382812 155.613281 219.792969 154.589844 219.203125 L 124.4375 201.773438 C 123.960938 201.5 123.585938 201.125 123.3125 200.652344 C 123.035156 200.175781 122.894531 199.667969 122.890625 199.117188 L 122.53125 152.128906 C 122.523438 151.152344 121.765625 150.605469 120.851562 150.953125 Z M 209.78125 153.761719 L 188.207031 166.222656 C 187.863281 166.417969 187.695312 166.710938 187.695312 167.105469 C 187.695312 167.5 187.863281 167.792969 188.207031 167.992188 L 207.113281 178.90625 C 208.132812 179.496094 209.15625 180.085938 210.175781 180.675781 L 240.332031 198.105469 C 240.804688 198.378906 241.179688 198.753906 241.457031 199.226562 C 241.734375 199.703125 241.871094 200.210938 241.875 200.761719 L 242.234375 247.75 C 242.242188 248.726562 243.003906 249.273438 243.917969 248.929688 C 251.914062 245.910156 259.125 240.679688 264.058594 232.957031 C 264.585938 232.132812 265.375 230.761719 265.828125 229.894531 C 275.765625 210.878906 269.550781 187.597656 251.449219 176.101562 C 250.625 175.578125 249.25 174.789062 248.40625 174.300781 L 212.847656 153.761719 C 212.371094 153.488281 211.859375 153.351562 211.3125 153.351562 C 210.765625 153.351562 210.253906 153.488281 209.78125 153.761719 Z M 212.941406 189.019531 L 212.941406 210.859375 C 212.941406 212.039062 212.941406 213.222656 212.941406 214.402344 L 212.957031 249.246094 C 213.195312 249.84375 213.191406 250.441406 212.941406 251.035156 L 170.960938 275.722656 C 170.117188 276.214844 170.023438 277.144531 170.78125 277.765625 C 177.390625 283.191406 185.511719 286.828125 194.65625 287.246094 C 195.632812 287.289062 197.21875 287.289062 198.195312 287.25 C 219.609375 286.355469 236.636719 269.320312 237.53125 247.882812 C 237.570312 246.90625 237.566406 245.320312 237.566406 244.339844 L 237.566406 203.246094 C 237.566406 202.699219 237.429688 202.1875 237.15625 201.714844 C 236.882812 201.238281 236.507812 200.867188 236.035156 200.589844 L 214.472656 188.132812 C 214.132812 187.9375 213.792969 187.9375 213.453125 188.132812 C 213.113281 188.328125 212.941406 188.625 212.941406 189.019531 Z M 207.113281 220.957031 L 188.222656 231.886719 C 187.199219 232.476562 186.179688 233.066406 185.15625 233.660156 L 155.003906 251.089844 C 154.527344 251.363281 154.015625 251.5 153.46875 251.503906 C 152.921875 251.503906 152.410156 251.371094 151.933594 251.101562 L 111.097656 227.917969 C 110.25 227.433594 109.398438 227.820312 109.238281 228.785156 C 107.851562 237.226562 108.765625 246.082031 112.972656 254.21875 C 113.425781 255.085938 114.214844 256.460938 114.738281 257.285156 C 126.222656 275.40625 149.476562 281.667969 168.472656 271.726562 C 169.335938 271.273438 170.707031 270.476562 171.554688 269.988281 L 207.113281 249.449219 C 207.585938 249.175781 207.960938 248.800781 208.234375 248.324219 C 208.507812 247.851562 208.644531 247.339844 208.644531 246.792969 L 208.644531 221.84375 C 208.644531 221.449219 208.476562 221.15625 208.132812 220.957031 C 207.792969 220.761719 207.453125 220.761719 207.113281 220.957031 Z M 207.113281 220.957031 " fill-opacity="1" fill-rule="nonzero"/></g><path fill="#33c6b7" d="M 180.863281 227.910156 L 158.949219 215.253906 C 158.476562 214.980469 158.101562 214.605469 157.828125 214.128906 C 157.554688 213.65625 157.417969 213.144531 157.417969 212.597656 L 157.414062 187.273438 C 157.414062 186.726562 157.550781 186.214844 157.824219 185.738281 C 158.097656 185.265625 158.472656 184.890625 158.945312 184.617188 L 180.855469 171.953125 C 181.332031 171.679688 181.839844 171.539062 182.386719 171.539062 C 182.9375 171.539062 183.445312 171.679688 183.921875 171.953125 L 205.835938 184.609375 C 206.308594 184.882812 206.683594 185.257812 206.957031 185.734375 C 207.230469 186.207031 207.367188 186.71875 207.367188 187.265625 L 207.371094 212.589844 C 207.371094 213.136719 207.234375 213.648438 206.960938 214.125 C 206.6875 214.597656 206.3125 214.972656 205.839844 215.246094 L 183.929688 227.910156 C 183.453125 228.183594 182.945312 228.320312 182.394531 228.320312 C 181.847656 228.320312 181.339844 228.183594 180.863281 227.910156 Z M 180.863281 227.910156 " fill-opacity="1" fill-rule="nonzero"/><g fill="#000000" fill-opacity="1"><g transform="translate(12.132228, 223.521152)"><g><path d="M 51.5 -39.328125 C 55.707031 -34.710938 57.8125 -29.078125 57.8125 -22.421875 C 57.8125 -15.765625 55.707031 -10.144531 51.5 -5.5625 C 47.300781 -0.976562 41.957031 1.3125 35.46875 1.3125 C 29.519531 1.3125 24.617188 -0.816406 20.765625 -5.078125 L 20.578125 -5.078125 L 20.578125 0 L 5.25 0 L 5.25 -75.328125 L 20.765625 -75.328125 L 20.765625 -40.640625 C 24.617188 -44.378906 29.519531 -46.25 35.46875 -46.25 C 41.957031 -46.25 47.300781 -43.941406 51.5 -39.328125 Z M 38.453125 -14.84375 C 40.378906 -16.800781 41.34375 -19.328125 41.34375 -22.421875 C 41.34375 -25.515625 40.332031 -28.050781 38.3125 -30.03125 C 36.300781 -32.019531 33.804688 -33.015625 30.828125 -33.015625 C 27.910156 -33.015625 25.441406 -32.019531 23.421875 -30.03125 C 21.410156 -28.050781 20.40625 -25.515625 20.40625 -22.421875 C 20.40625 -19.390625 21.382812 -16.878906 23.34375 -14.890625 C 25.300781 -12.898438 27.796875 -11.90625 30.828125 -11.90625 C 33.984375 -11.90625 36.523438 -12.882812 38.453125 -14.84375 Z M 38.453125 -14.84375 "/></g></g></g><g fill="#000000" fill-opacity="1"><g transform="translate(63.712785, 223.521152)"><g><path d="M 5.25 0 L 5.25 -44.9375 L 20.765625 -44.9375 L 20.765625 -38.453125 L 20.9375 -38.453125 C 21.050781 -38.679688 21.238281 -38.972656 21.5 -39.328125 C 21.769531 -39.679688 22.34375 -40.296875 23.21875 -41.171875 C 24.09375 -42.046875 25.023438 -42.832031 26.015625 -43.53125 C 27.003906 -44.226562 28.285156 -44.851562 29.859375 -45.40625 C 31.441406 -45.96875 33.050781 -46.25 34.6875 -46.25 C 36.382812 -46.25 38.046875 -46.015625 39.671875 -45.546875 C 41.304688 -45.078125 42.503906 -44.609375 43.265625 -44.140625 L 44.5 -43.453125 L 38.015625 -30.3125 C 36.085938 -31.945312 33.398438 -32.765625 29.953125 -32.765625 C 28.085938 -32.765625 26.484375 -32.351562 25.140625 -31.53125 C 23.796875 -30.71875 22.84375 -29.722656 22.28125 -28.546875 C 21.726562 -27.378906 21.335938 -26.382812 21.109375 -25.5625 C 20.878906 -24.75 20.765625 -24.113281 20.765625 -23.65625 L 20.765625 0 Z M 5.25 0 "/></g></g></g><g fill="#000000" fill-opacity="1"><g transform="translate(99.091563, 223.521152)"><g><path d="M 8.3125 -5.5625 C 4.113281 -10.144531 2.015625 -15.765625 2.015625 -22.421875 C 2.015625 -29.078125 4.113281 -34.710938 8.3125 -39.328125 C 12.519531 -43.941406 17.863281 -46.25 24.34375 -46.25 C 30.300781 -46.25 35.207031 -44.378906 39.0625 -40.640625 L 39.0625 -44.9375 L 54.578125 -44.9375 L 54.578125 0 L 39.234375 0 L 39.234375 -5.078125 L 39.0625 -5.078125 C 35.207031 -0.816406 30.300781 1.3125 24.34375 1.3125 C 17.863281 1.3125 12.519531 -0.976562 8.3125 -5.5625 Z M 21.5 -30.03125 C 19.488281 -28.050781 18.484375 -25.515625 18.484375 -22.421875 C 18.484375 -19.328125 19.445312 -16.800781 21.375 -14.84375 C 23.300781 -12.882812 25.84375 -11.90625 29 -11.90625 C 32.03125 -11.90625 34.523438 -12.898438 36.484375 -14.890625 C 38.441406 -16.878906 39.421875 -19.390625 39.421875 -22.421875 C 39.421875 -25.515625 38.410156 -28.050781 36.390625 -30.03125 C 34.378906 -32.019531 31.914062 -33.015625 29 -33.015625 C 26.019531 -33.015625 23.519531 -32.019531 21.5 -30.03125 Z M 21.5 -30.03125 "/></g></g></g><g fill="#000000" fill-opacity="1"><g transform="translate(150.672119, 223.521152)"><g><path d="M 5.25 0 L 5.25 -44.9375 L 20.765625 -44.9375 L 20.765625 -40.203125 L 20.9375 -40.203125 C 24.96875 -44.234375 29.257812 -46.25 33.8125 -46.25 C 36.03125 -46.25 38.234375 -45.957031 40.421875 -45.375 C 42.609375 -44.789062 44.707031 -43.882812 46.71875 -42.65625 C 48.738281 -41.425781 50.375 -39.6875 51.625 -37.4375 C 52.882812 -35.195312 53.515625 -32.585938 53.515625 -29.609375 L 53.515625 0 L 38.015625 0 L 38.015625 -25.40625 C 38.015625 -27.738281 37.269531 -29.78125 35.78125 -31.53125 C 34.289062 -33.28125 32.347656 -34.15625 29.953125 -34.15625 C 27.617188 -34.15625 25.503906 -33.25 23.609375 -31.4375 C 21.710938 -29.632812 20.765625 -27.625 20.765625 -25.40625 L 20.765625 0 Z M 5.25 0 "/></g></g></g><g fill="#000000" fill-opacity="1"><g transform="translate(200.325975, 223.521152)"><g><path d="M 8.3125 -5.5625 C 4.113281 -10.144531 2.015625 -15.765625 2.015625 -22.421875 C 2.015625 -29.078125 4.113281 -34.710938 8.3125 -39.328125 C 12.519531 -43.941406 17.863281 -46.25 24.34375 -46.25 C 30.300781 -46.25 35.207031 -44.378906 39.0625 -40.640625 L 39.0625 -75.328125 L 54.578125 -75.328125 L 54.578125 0 L 39.234375 0 L 39.234375 -5.078125 L 39.0625 -5.078125 C 35.207031 -0.816406 30.300781 1.3125 24.34375 1.3125 C 17.863281 1.3125 12.519531 -0.976562 8.3125 -5.5625 Z M 21.5 -30.03125 C 19.488281 -28.050781 18.484375 -25.515625 18.484375 -22.421875 C 18.484375 -19.328125 19.445312 -16.800781 21.375 -14.84375 C 23.300781 -12.882812 25.84375 -11.90625 29 -11.90625 C 32.03125 -11.90625 34.523438 -12.898438 36.484375 -14.890625 C 38.441406 -16.878906 39.421875 -19.390625 39.421875 -22.421875 C 39.421875 -25.515625 38.410156 -28.050781 36.390625 -30.03125 C 34.378906 -32.019531 31.914062 -33.015625 29 -33.015625 C 26.019531 -33.015625 23.519531 -32.019531 21.5 -30.03125 Z M 21.5 -30.03125 "/></g></g></g><g fill="#000000" fill-opacity="1"><g transform="translate(251.906541, 223.521152)"><g><path d="M 6.734375 -69.984375 C 8.546875 -71.796875 10.707031 -72.703125 13.21875 -72.703125 C 15.738281 -72.703125 17.898438 -71.796875 19.703125 -69.984375 C 21.515625 -68.171875 22.421875 -66.007812 22.421875 -63.5 C 22.421875 -60.988281 21.515625 -58.828125 19.703125 -57.015625 C 17.898438 -55.210938 15.738281 -54.3125 13.21875 -54.3125 C 10.707031 -54.3125 8.546875 -55.210938 6.734375 -57.015625 C 4.929688 -58.828125 4.03125 -60.988281 4.03125 -63.5 C 4.03125 -66.007812 4.929688 -68.171875 6.734375 -69.984375 Z M 5.25 -44.9375 L 5.25 0 L 20.765625 0 L 20.765625 -44.9375 Z M 5.25 -44.9375 "/></g></g></g><g fill="#000000" fill-opacity="1"><g transform="translate(270.120191, 223.521152)"><g><path d="M 7.890625 -44.9375 L 7.890625 -54.484375 C 7.941406 -61.203125 9.515625 -66.570312 12.609375 -70.59375 C 15.703125 -74.625 19.992188 -76.640625 25.484375 -76.640625 C 27.828125 -76.640625 30.0625 -76.300781 32.1875 -75.625 C 34.320312 -74.957031 35.859375 -74.273438 36.796875 -73.578125 L 38.28125 -72.609375 L 32.84375 -61.671875 C 31.445312 -62.484375 29.898438 -62.890625 28.203125 -62.890625 C 26.273438 -62.890625 24.988281 -62.234375 24.34375 -60.921875 C 23.707031 -59.609375 23.390625 -57.316406 23.390625 -54.046875 L 23.390625 -44.9375 L 33.71875 -44.9375 L 33.71875 -33.109375 L 23.390625 -33.109375 L 23.390625 0 L 7.890625 0 L 7.890625 -33.109375 L 1.40625 -33.109375 L 1.40625 -44.9375 Z M 7.890625 -44.9375 "/></g></g></g><g fill="#000000" fill-opacity="1"><g transform="translate(294.72698, 223.521152)"><g><path d="M 39.328125 -44.9375 L 57.203125 -44.9375 L 21.90625 22.78125 L 4.03125 22.78125 L 19.53125 -7 L -1.75 -44.9375 L 16.125 -44.9375 L 28.640625 -21.90625 Z M 39.328125 -44.9375 "/></g></g></g><g fill="#000000" fill-opacity="1"><g transform="translate(341.928687, 223.521152)"><g><path d="M 15.234375 -18.75 C 18.046875 -18.75 20.425781 -17.769531 22.375 -15.8125 C 24.332031 -13.851562 25.3125 -11.472656 25.3125 -8.671875 C 25.3125 -5.929688 24.332031 -3.582031 22.375 -1.625 C 20.425781 0.332031 18.046875 1.3125 15.234375 1.3125 C 12.492188 1.3125 10.144531 0.332031 8.1875 -1.625 C 6.226562 -3.582031 5.25 -5.929688 5.25 -8.671875 C 5.25 -11.472656 6.226562 -13.851562 8.1875 -15.8125 C 10.144531 -17.769531 12.492188 -18.75 15.234375 -18.75 Z M 15.234375 -18.75 "/></g></g></g></svg>